<svg width="78" height="56" viewBox="0 0 78 56" fill="none" xmlns="http://www.w3.org/2000/svg">
<g clip-path="url(#clip0)">
<path d="M11.217 21.3585L14.5044 11.3258L9.48156 12.6717L6.66318 21.3405L4.68477 13.957L0.18935 15.1615L4.89986 32.7414L9.39528 31.5368L7.28901 23.6761L14.4432 30.1842L19.466 28.8384L11.217 21.3585Z" fill="#551394"/>
<path d="M29.4077 16.4305C30.2588 15.2872 30.5018 13.9839 30.1048 12.5022C29.2771 9.41318 26.4803 8.11688 22.9643 9.05898L16.0328 10.9163L20.7433 28.4961L28.152 26.511C29.9351 26.0332 31.2387 25.1725 32.0696 23.9539C32.9005 22.7353 33.0915 21.3383 32.6743 19.7812C32.2032 18.0232 31.125 16.9124 29.4077 16.4305ZM23.9154 13.1109C24.7442 12.8888 25.4949 13.2798 25.717 14.1086C25.9525 14.9876 25.4593 15.6581 24.6556 15.8734L22.3451 16.4925L21.6049 13.73L23.9154 13.1109ZM24.162 23.2733L23.368 20.3099L26.1556 19.5629C27.0597 19.3207 27.8424 19.73 28.0846 20.6342C28.3202 21.5131 27.8538 22.2841 26.9497 22.5264L24.162 23.2733Z" fill="#551394"/>
<path d="M50.0153 20.6527L45.3048 3.07285L41.8391 4.00149L38.0046 14.5038L35.6359 5.66363L31.1405 6.86817L35.851 24.448L39.3418 23.5127L43.1763 13.0104L45.545 21.8505L50.0153 20.6527Z" fill="#551394"/>
<path d="M60.0185 8.25526C60.9633 7.05999 61.2431 5.69301 60.8326 4.16105C60.4086 2.57887 59.4878 1.45282 58.0769 0.808035C56.6592 0.138133 55.0245 0.0647242 53.1911 0.555963C50.1774 1.36348 48.294 3.3755 47.8534 6.0507L52.206 7.22623C52.3668 5.91801 53.0341 5.09321 54.2396 4.7702C55.4451 4.44719 56.1757 4.76286 56.4381 5.74231C56.7005 6.72176 56.1503 7.38061 54.7942 7.744L53.0613 8.20832L54.1043 12.101L56.7731 11.4128C57.9302 11.2104 58.6173 11.5647 58.8595 12.4688C59.1354 13.4985 58.5736 14.2143 57.1923 14.5844C55.7106 14.9814 54.5427 14.5407 53.6703 13.294L50.42 16.5336C52.2837 18.9682 54.914 19.7439 58.3295 18.8287C60.3136 18.2971 61.7679 17.3959 62.7109 16.0935C63.654 14.791 63.9135 13.3487 63.4828 11.7414C62.9849 9.88297 61.8362 8.71031 60.0185 8.25526Z" fill="#551394"/>
<path d="M65.5221 11.8141L66.7561 19.9354L70.1214 19.0337L70.118 10.5826L65.5221 11.8141Z" fill="#551394"/>
<path d="M4.9527 37.6965L9.66321 55.2764L14.1586 54.0718L10.6123 40.8367L15.1831 39.612L18.7294 52.8471L23.2248 51.6426L18.5143 34.0627L4.9527 37.6965Z" fill="#551394"/>
<path d="M24.7415 51.2362C26.6789 50.9324 28.187 50.2322 29.3444 48.9261C30.5269 47.6133 30.8609 45.3436 30.087 42.4554L28.3777 36.0765L31.8937 35.1344L35.4401 48.3695L39.9355 47.1649L35.225 29.5851L22.7182 32.9363L25.5377 43.4591C26.2039 45.9454 25.5618 46.7634 23.6177 47.0421L24.7415 51.2362Z" fill="#551394"/>
<path d="M56.8633 42.6291L52.1528 25.0493L48.6871 25.9779L44.8526 36.4802L42.4839 27.6401L37.9885 28.8446L42.699 46.4245L46.1899 45.4891L50.0243 34.9868L52.393 43.8269L56.8633 42.6291Z" fill="#551394"/>
<path d="M66.8665 30.2317C67.8113 29.0364 68.0911 27.6694 67.6806 26.1375C67.2567 24.5553 66.3358 23.4293 64.9249 22.7845C63.5072 22.1146 61.8725 22.0412 60.0391 22.5324C57.0255 23.3399 55.142 25.3519 54.7014 28.0271L59.054 29.2027C59.2149 27.8944 59.8821 27.0696 61.0876 26.7466C62.2931 26.4236 63.0237 26.7393 63.2861 27.7187C63.5486 28.6982 62.9983 29.357 61.6422 29.7204L59.9093 30.1847L60.9523 34.0774L63.6212 33.3892C64.7782 33.1869 65.4653 33.5411 65.7076 34.4452C65.9835 35.4749 65.4216 36.1907 64.0403 36.5608C62.5586 36.9579 61.3907 36.5171 60.5183 35.2704L57.268 38.51C59.1317 40.9446 61.762 41.7203 65.1776 40.8051C67.1616 40.2735 68.6159 39.3724 69.5589 38.0699C70.502 36.7675 70.7615 35.3251 70.3308 33.7178C69.8329 31.8594 68.6842 30.6867 66.8665 30.2317Z" fill="#551394"/>
<path d="M75.7813 30.6962L74.9614 24.3212L73.6156 19.2984L68.4923 20.6711L69.8381 25.694L72.3156 31.6248L75.7813 30.6962ZM72.5469 36.0042C72.944 37.4859 74.4271 38.2998 75.8586 37.9162C77.2901 37.5326 78.1677 36.0862 77.7707 34.6045C77.3871 33.173 75.8904 32.3089 74.4589 32.6925C73.0274 33.076 72.1634 34.5727 72.5469 36.0042Z" fill="#551394"/>
</g>
<defs>
<clipPath id="clip0">
<rect width="78" height="56" fill="white"/>
</clipPath>
</defs>
</svg>
