<svg xmlns="http://www.w3.org/2000/svg" width="24" height="24" viewBox="0 0 24 24">
  <path fill="#FFF" fill-rule="evenodd" d="M9,0 C13.9705627,1.40804583e-15 18,4.02943725 18,9 C18,13.1428291 15.4620287,17.6856493 10.3860861,22.6284605 C9.60918259,23.3849875 8.37091739,23.3845792 7.59451291,22.62754 L7.59452921,22.6275233 C2.53150974,17.6907871 0,13.1482793 0,9 C8.8817842e-16,4.02943725 4.02943725,-3.04359188e-16 9,0 Z M9,12 C10.6568542,12 12,10.6568542 12,9 C12,7.34314575 10.6568542,6 9,6 C7.34314575,6 6,7.34314575 6,9 C6,10.6568542 7.34314575,12 9,12 Z" transform="translate(3)"/>
</svg>
