<svg width="22" height="21" viewBox="0 0 22 21" fill="none" xmlns="http://www.w3.org/2000/svg">
<path d="M6.17998 10.84L7.58998 12.26L9.99998 9.85V16H12V9.85L14.41 12.26L15.82 10.84L11 6L6.17998 10.84ZM18.39 4.26C16.6024 2.30005 14.1095 1.13048 11.4596 1.00858C8.80971 0.886679 6.21993 1.82244 4.25998 3.61C2.30003 5.39756 1.13046 7.89049 1.00856 10.5404C0.886664 13.1903 1.82242 15.78 3.60998 17.74C4.49214 18.7146 5.55887 19.5046 6.74841 20.0642C7.93795 20.6238 9.22668 20.9419 10.54 21H11C12.939 21.0005 14.8364 20.4373 16.4611 19.3788C18.0859 18.3204 19.3678 16.8124 20.1509 15.0386C20.934 13.2647 21.1845 11.3013 20.8718 9.38765C20.5592 7.47396 19.6969 5.69244 18.39 4.26ZM16.39 16.91C14.8157 18.2958 12.7601 19.008 10.6659 18.8932C8.57171 18.7783 6.60635 17.8457 5.19303 16.296C3.77972 14.7463 3.0315 12.7036 3.10948 10.6077C3.18746 8.51181 4.08541 6.53035 5.60998 5.09C7.07913 3.73907 9.00415 2.99264 11 3H11.38C12.9581 3.07747 14.4779 3.6205 15.7478 4.5606C17.0177 5.50071 17.9807 6.7958 18.5155 8.28254C19.0503 9.76927 19.1329 11.3811 18.7528 12.9147C18.3728 14.4483 17.5471 15.835 16.38 16.9L16.39 16.91Z" fill="white"/>
</svg>
